{
  "accessors": [
    {
      "bufferView": 2,
      "componentType": 5126,
      "count": 65532,
      "max": [
        63.870285034179688,
        73.726402282714844,
        97.89056396484375
      ],
      "min": [
        -81.06317138671875,
        -71.067474365234375,
        -2.0345458984375
      ],
      "type": "VEC3"
    },
    {
      "bufferView": 2,
      "byteOffset": 786384,
      "componentType": 5126,
      "count": 65532,
      "max": [
        1,
        1,
        1
      ],
      "min": [
        -1,
        -1,
        -1
      ],
      "type": "VEC3"
    },
    {
      "bufferView": 1,
      "componentType": 5126,
      "count": 65532,
      "max": [
        1.0005849599838257,
        0.99984097480773926
      ],
      "min": [
        6.9000001531094313e-05,
        0.00064400001429021358
      ],
      "type": "VEC2"
    },
    {
      "bufferView": 0,
      "componentType": 5125,
      "count": 228570,
      "max": [
        65531
      ],
      "min": [
        0
      ],
      "type": "SCALAR"
    },
    {
      "bufferView": 2,
      "byteOffset": 1572768,
      "componentType": 5126,
      "count": 30371,
      "max": [
        66.24365234375,
        73.51031494140625,
        115.44282531738281
      ],
      "min": [
        -90.488922119140625,
        -75.960716247558594,
        -1.7196539640426636
      ],
      "type": "VEC3"
    },
    {
      "bufferView": 2,
      "byteOffset": 1937220,
      "componentType": 5126,
      "count": 30371,
      "max": [
        1,
        1,
        1
      ],
      "min": [
        -1,
        -1,
        -1
      ],
      "type": "VEC3"
    },
    {
      "bufferView": 1,
      "byteOffset": 524256,
      "componentType": 5126,
      "count": 30371,
      "max": [
        0.99949300289154053,
        0.99911898374557495
      ],
      "min": [
        0.0019010000396519899,
        0.0039719999767839909
      ],
      "type": "VEC2"
    },
    {
      "bufferView": 0,
      "byteOffset": 914280,
      "componentType": 5125,
      "count": 89358,
      "max": [
        30370
      ],
      "min": [
        0
      ],
      "type": "SCALAR"
    },
    {
      "bufferView": 2,
      "byteOffset": 2301672,
      "componentType": 5126,
      "count": 47584,
      "max": [
        34.217124938964844,
        13.375637054443359,
        14.195903778076172
      ],
      "min": [
        -3.8007678985595703,
        -38.328609466552734,
        -1.5470240116119385
      ],
      "type": "VEC3"
    },
    {
      "bufferView": 2,
      "byteOffset": 2872680,
      "componentType": 5126,
      "count": 47584,
      "max": [
        0.99999964237213135,
        0.99999278783798218,
        0.99994474649429321
      ],
      "min": [
        -0.9999995231628418,
        -0.99999964237213135,
        -0.99997425079345703
      ],
      "type": "VEC3"
    },
    {
      "bufferView": 1,
      "byteOffset": 767224,
      "componentType": 5126,
      "count": 47584,
      "max": [
        0.98124998807907104,
        0.99905598163604736
      ],
      "min": [
        0.0021120000164955854,
        0.0014830000000074506
      ],
      "type": "VEC2"
    },
    {
      "bufferView": 0,
      "byteOffset": 1271712,
      "componentType": 5125,
      "count": 186720,
      "max": [
        47583
      ],
      "min": [
        0
      ],
      "type": "SCALAR"
    }
  ],
  "asset": {
    "extras": {
      "author": "igoremba (https://sketchfab.com/igoremba)",
      "license": "CC-BY-4.0 (http://creativecommons.org/licenses/by/4.0/)",
      "source": "https://sketchfab.com/3d-models/the-bathhouse-chicken-8833efd04eca47f7a6ce683c6087f3c1",
      "title": "The Bathhouse Chicken"
    },
    "generator": "Sketchfab-9.62.3",
    "version": "2.0"
  },
  "bufferViews": [
    {
      "buffer": 0,
      "byteLength": 2018592,
      "byteOffset": 0,
      "name": "floatBufferViews",
      "target": 34963
    },
    {
      "buffer": 0,
      "byteLength": 1147896,
      "byteOffset": 2018592,
      "byteStride": 8,
      "name": "floatBufferViews",
      "target": 34962
    },
    {
      "buffer": 0,
      "byteLength": 3443688,
      "byteOffset": 3166488,
      "byteStride": 12,
      "name": "floatBufferViews",
      "target": 34962
    }
  ],
  "buffers": [
    {
      "byteLength": 6610176,
      "uri": "scene.bin"
    }
  ],
  "extensionsUsed": [
    "KHR_materials_unlit"
  ],
  "images": [
    {
      "uri": "textures/1001_baseColor.png"
    }
  ],
  "materials": [
    {
      "alphaMode": "BLEND",
      "doubleSided": true,
      "extensions": {
        "KHR_materials_unlit": {}
      },
      "name": "1001",
      "pbrMetallicRoughness": {
        "baseColorFactor": [
          1,
          1,
          1,
          1
        ],
        "baseColorTexture": {
          "index": 0,
          "texCoord": 0
        },
        "metallicFactor": 0,
        "roughnessFactor": 1
      }
    }
  ],
  "meshes": [
    {
      "primitives": [
        {
          "attributes": {
            "NORMAL": 1,
            "POSITION": 0,
            "TEXCOORD_0": 2
          },
          "indices": 3,
          "material": 0,
          "mode": 4
        }
      ]
    },
    {
      "primitives": [
        {
          "attributes": {
            "NORMAL": 5,
            "POSITION": 4,
            "TEXCOORD_0": 6
          },
          "indices": 7,
          "material": 0,
          "mode": 4
        }
      ]
    },
    {
      "primitives": [
        {
          "attributes": {
            "NORMAL": 9,
            "POSITION": 8,
            "TEXCOORD_0": 10
          },
          "indices": 11,
          "material": 0,
          "mode": 4
        }
      ]
    }
  ],
  "nodes": [
    {
      "children": [
        1
      ],
      "name": "RootNode (gltf orientation matrix)",
      "rotation": [
        -0.70710678118654746,
        -0,
        -0,
        0.70710678118654757
      ]
    },
    {
      "children": [
        2
      ],
      "name": "RootNode (model correction matrix)"
    },
    {
      "children": [
        3,
        4,
        5
      ],
      "name": "chiki.obj.cleaner.materialmerger.gles"
    },
    {
      "mesh": 0,
      "name": ""
    },
    {
      "mesh": 1,
      "name": ""
    },
    {
      "mesh": 2,
      "name": ""
    }
  ],
  "samplers": [
    {
      "magFilter": 9729,
      "minFilter": 9987,
      "wrapS": 10497,
      "wrapT": 10497
    }
  ],
  "scene": 0,
  "scenes": [
    {
      "name": "OSG_Scene",
      "nodes": [
        0
      ]
    }
  ],
  "textures": [
    {
      "sampler": 0,
      "source": 0
    }
  ]
}

